<?xml version="1.0" standalone="no"?>
<!DOCTYPE svg PUBLIC "-//W3C//DTD SVG 20010904//EN"
 "http://www.w3.org/TR/2001/REC-SVG-20010904/DTD/svg10.dtd">
<svg version="1.0" xmlns="http://www.w3.org/2000/svg"
 width="736.000000pt" height="736.000000pt" viewBox="0 0 736.000000 736.000000"
 preserveAspectRatio="xMidYMid meet">
<metadata>
Created by potrace 1.16, written by Peter Selinger 2001-2019
</metadata>
<g transform="translate(0.000000,736.000000) scale(0.100000,-0.100000)"
fill="#000000" stroke="none">
<path d="M3155 6539 c-415 -25 -832 -150 -1188 -358 -773 -453 -1264 -1224
-1348 -2115 -15 -159 -7 -480 16 -626 113 -729 486 -1355 1069 -1794 719 -540
1699 -685 2546 -376 866 315 1527 1060 1724 1942 49 220 58 295 63 553 7 335
-18 540 -103 834 -180 620 -605 1179 -1169 1536 -112 70 -358 192 -486 239
-356 131 -744 188 -1124 165z m470 -100 c592 -65 1152 -340 1570 -770 188
-193 322 -373 438 -589 444 -823 412 -1834 -84 -2629 -584 -936 -1687 -1404
-2770 -1175 -668 140 -1270 554 -1644 1129 -211 324 -342 667 -402 1055 -25
163 -25 585 0 755 23 148 83 389 132 521 50 135 170 378 249 502 543 852 1506
1313 2511 1201z"/>
<path d="M4307 5330 c-181 -46 -267 -238 -152 -339 31 -26 44 -31 90 -31 42 0
60 5 83 25 40 34 56 76 49 132 -4 38 -12 54 -41 80 -30 28 -43 33 -86 33 -27
0 -50 3 -50 6 0 41 80 83 158 84 101 0 135 -66 136 -260 0 -178 -28 -218 -156
-221 l-53 -2 66 -7 c83 -8 127 -34 159 -90 21 -38 25 -61 28 -160 5 -127 -7
-212 -38 -276 -27 -55 -70 -76 -157 -75 -91 0 -164 36 -204 99 -33 53 -36 67
-11 56 32 -14 91 -16 127 -4 79 26 115 149 65 219 -64 91 -206 81 -264 -19
-29 -49 -28 -150 1 -206 43 -81 129 -136 241 -156 59 -10 86 -9 170 5 235 38
368 157 366 327 -1 134 -92 231 -257 274 l-52 14 57 25 c78 35 124 72 155 124
22 38 25 53 21 112 -6 105 -57 166 -179 212 -62 24 -212 34 -272 19z"/>
<path d="M2261 5279 c-202 -39 -403 -162 -521 -316 -66 -88 -133 -226 -160
-333 -27 -106 -37 -297 -21 -399 50 -319 238 -517 549 -577 88 -17 225 -18
308 -3 32 6 91 26 130 44 84 40 171 127 221 220 l32 60 1 -134 c0 -259 -36
-597 -86 -788 -53 -209 -134 -324 -262 -374 -76 -30 -231 -33 -310 -6 -60 21
-139 81 -164 123 l-16 29 96 0 c115 1 172 21 239 87 137 134 123 348 -29 458
-99 72 -263 80 -377 20 -90 -48 -133 -112 -153 -228 -41 -240 131 -460 404
-518 91 -20 293 -14 388 11 95 26 224 84 310 140 107 70 272 239 353 361 243
367 330 844 235 1284 -97 452 -389 758 -796 836 -80 15 -300 17 -371 3z m276
-24 c122 -36 204 -184 244 -440 6 -38 13 -178 16 -310 5 -268 -6 -384 -52
-522 -59 -175 -182 -292 -308 -293 -26 0 -62 6 -80 13 -38 17 -98 81 -127 136
-60 119 -84 477 -60 911 20 355 66 468 208 506 63 17 99 17 159 -1z"/>
<path d="M4310 3999 c-250 -3 -501 -7 -557 -8 l-103 -1 0 -36 0 -36 633 6
c347 3 705 9 795 12 l162 6 0 34 0 34 -237 -2 c-131 -1 -443 -5 -693 -9z"/>
<path d="M4168 3362 l-227 -387 189 -3 190 -2 0 -111 c0 -164 -14 -185 -130
-203 -14 -2 108 -3 270 -3 162 0 277 3 255 6 -51 9 -81 26 -97 54 -6 12 -14
75 -16 140 l-4 117 84 0 85 0 13 58 c7 31 15 63 17 70 3 6 1 12 -4 12 -6 0
-15 -18 -22 -40 -16 -54 -46 -72 -113 -68 l-53 3 -3 373 -2 372 -103 0 -102
-1 -227 -387z m152 -72 l0 -290 -171 0 c-151 0 -170 2 -165 16 8 22 328 564
332 564 2 0 4 -130 4 -290z"/>
</g>
</svg>
