<?xml version="1.0" standalone="no"?>
<!DOCTYPE svg PUBLIC "-//W3C//DTD SVG 20010904//EN"
 "http://www.w3.org/TR/2001/REC-SVG-20010904/DTD/svg10.dtd">
<svg version="1.0" xmlns="http://www.w3.org/2000/svg"
 width="600.000000pt" height="600.000000pt" viewBox="0 0 600.000000 600.000000"
 preserveAspectRatio="xMidYMid meet">

<g transform="translate(0.000000,600.000000) scale(0.100000,-0.100000)"
fill="#000000" stroke="none">
<path d="M2793 5980 c-966 -72 -1839 -519 -2467 -1264 -32 -37 -54 -72 -49
-76 4 -4 106 -81 226 -170 l218 -162 -18 -27 c-91 -139 -220 -398 -277 -556
-69 -193 -120 -405 -148 -615 -19 -145 -16 -547 5 -695 65 -441 218 -839 456
-1185 151 -221 410 -491 616 -646 382 -286 804 -459 1290 -531 168 -24 562
-24 730 0 492 72 896 240 1295 536 133 99 404 364 502 491 304 396 484 815
560 1305 29 189 32 579 5 760 -61 407 -193 775 -390 1087 l-55 86 224 203
c123 112 224 206 224 210 0 17 -324 339 -430 428 -540 452 -1173 724 -1872
806 -163 19 -489 26 -645 15z m565 -197 l63 -6 -6 -76 c-8 -85 -19 -109 -29
-59 -17 91 -80 132 -218 143 l-88 7 0 -86 0 -86 38 0 c47 0 74 19 97 65 9 20
19 35 21 32 8 -8 -9 -217 -17 -217 -5 0 -9 7 -9 15 0 32 -30 73 -61 84 -66 23
-69 20 -69 -68 0 -88 7 -100 68 -112 22 -4 -24 -7 -113 -7 -98 0 -138 3 -115
8 57 14 62 28 58 188 -3 161 -8 171 -77 173 -30 0 -33 2 -16 10 20 9 356 4
473 -8z m-544 -15 c9 -39 12 -168 5 -168 -4 0 -10 12 -14 28 -10 41 -51 90
-95 112 -35 18 -119 28 -132 15 -2 -3 6 -76 18 -162 27 -189 34 -199 124 -189
34 4 49 3 40 -2 -8 -5 -47 -12 -86 -16 -38 -3 -116 -15 -173 -27 -105 -21
-150 -21 -64 0 58 15 83 36 83 69 0 23 -49 304 -54 309 -5 6 -73 -18 -103 -37
-41 -25 -75 -90 -76 -146 0 -24 -3 -44 -6 -44 -8 0 -54 180 -48 187 10 9 294
63 408 77 166 20 168 20 173 -6z m1037 -67 c121 -46 189 -124 189 -215 0 -67
-29 -109 -100 -144 -47 -23 -67 -27 -140 -27 -71 1 -95 5 -143 27 -82 38 -115
64 -148 116 -111 176 108 331 342 243z m-1843 -157 c42 -37 112 -101 154 -142
67 -66 82 -76 113 -76 48 0 33 -9 -60 -36 -44 -12 -95 -28 -112 -36 -18 -7
-33 -9 -33 -3 0 5 6 9 14 9 8 0 24 8 36 18 l23 19 -35 38 -35 39 -94 -36 c-88
-33 -94 -37 -97 -65 -4 -39 20 -63 61 -63 27 0 18 -7 -53 -39 -47 -21 -87 -36
-89 -34 -3 2 6 13 18 24 30 28 40 59 52 154 19 165 42 295 50 295 5 0 44 -30
87 -66z m2329 -15 c298 -126 420 -226 369 -303 -8 -13 -27 -27 -41 -30 -32 -8
-119 15 -188 51 -27 13 -51 22 -53 20 -3 -2 20 -31 51 -63 30 -32 55 -67 55
-76 0 -54 24 -123 54 -151 l31 -30 -50 28 c-27 16 -62 36 -77 44 -23 13 -30
28 -43 91 -36 168 -39 175 -94 198 l-49 20 -26 -62 c-14 -33 -26 -67 -26 -74
0 -8 14 -27 31 -43 17 -16 29 -29 26 -29 -3 0 -43 17 -89 38 -46 22 -100 44
-121 51 -20 7 -37 17 -37 22 0 5 12 4 27 -2 45 -17 71 13 125 142 26 63 47
124 48 137 0 22 -19 46 -56 69 -16 11 -15 11 8 3 15 -5 71 -28 125 -51z
m-2945 -186 c-33 -12 -72 -56 -72 -82 0 -23 54 -117 165 -289 4 -5 119 68 143
90 37 36 45 57 52 138 l5 75 38 -72 c20 -40 37 -77 37 -82 0 -5 -44 -33 -97
-61 -54 -29 -151 -87 -215 -130 -65 -43 -118 -77 -118 -75 0 2 11 15 25 29 14
14 25 34 25 46 0 11 -35 72 -77 135 -87 131 -103 141 -166 107 -70 -38 -19 4
96 80 157 104 161 106 167 101 3 -3 -1 -8 -8 -10z m3541 -149 c43 -30 81 -62
84 -71 4 -9 -2 -88 -11 -175 -10 -88 -16 -162 -14 -163 2 -2 41 7 87 20 45 13
119 32 165 41 l82 16 70 -72 c38 -39 70 -77 72 -83 2 -7 -3 -5 -10 3 -22 26
-61 50 -82 50 -27 0 -226 -198 -226 -226 0 -12 10 -33 21 -48 45 -58 9 -28
-92 76 -105 107 -121 127 -72 88 14 -11 35 -20 46 -20 22 0 235 202 219 208
-12 4 -148 -30 -275 -69 -55 -17 -101 -28 -104 -26 -2 3 2 72 11 154 19 176
23 243 16 243 -3 0 -15 -15 -27 -33 -12 -17 -47 -68 -77 -111 -31 -44 -56 -87
-56 -96 0 -10 11 -34 25 -55 31 -45 29 -44 -73 29 -75 55 -102 83 -54 57 34
-18 77 -13 99 12 11 12 47 61 81 109 73 102 79 132 31 172 -52 44 -18 28 64
-30z m-3814 -150 c12 -15 21 -34 21 -43 -1 -40 -42 -99 -130 -187 l-95 -95 47
-44 c54 -52 75 -55 117 -19 17 14 31 24 31 22 0 -7 -220 -228 -227 -228 -4 0
4 11 17 25 14 15 23 37 23 57 0 28 -13 45 -99 125 -54 51 -107 96 -118 99 -12
4 -35 -5 -65 -26 l-46 -32 40 43 c70 75 182 185 237 232 116 99 205 125 247
71z m2225 -78 c226 -36 417 -97 631 -201 366 -178 648 -425 876 -769 180 -270
296 -579 344 -911 21 -145 24 -427 6 -565 -65 -491 -268 -918 -603 -1265 -333
-347 -741 -562 -1228 -650 -145 -26 -473 -32 -638 -11 -476 61 -905 268 -1253
603 -367 355 -586 793 -660 1323 -18 123 -15 432 5 565 151 1006 920 1763
1921 1890 139 18 461 13 599 -9z m1632 -3543 c0 -10 28 -39 71 -72 40 -31 72
-60 73 -66 1 -11 -97 -38 -203 -55 -78 -14 -77 -16 5 -77 45 -32 53 -35 71
-23 15 9 11 0 -12 -29 -37 -46 -41 -49 -34 -23 3 13 -15 37 -62 81 -58 54 -69
60 -83 49 -9 -7 -5 1 8 18 21 26 35 33 80 39 70 8 180 35 180 44 0 3 -26 23
-57 43 -55 35 -58 36 -77 20 -22 -19 -16 -6 18 41 23 32 24 32 22 10z m-3851
-48 c16 -22 21 -34 12 -26 -15 12 -22 10 -52 -10 l-35 -24 39 -18 c22 -9 54
-20 72 -24 26 -5 31 -3 24 8 -5 8 2 5 14 -6 13 -11 27 -28 33 -38 8 -15 7 -16
-9 -8 -28 16 -94 41 -108 41 -9 0 -15 -31 -20 -102 -9 -119 -20 -103 -31 45
-7 98 -15 106 -68 63 -25 -21 -27 -26 -16 -47 17 -33 1 -15 -45 51 -22 30 -30
47 -18 37 25 -22 36 -18 121 45 39 29 52 44 47 56 -7 20 1 12 40 -43z m189
-231 c24 -28 30 -41 17 -32 -19 12 -26 8 -88 -54 -57 -57 -65 -69 -54 -82 8
-9 11 -16 9 -16 -3 0 -24 23 -48 51 -23 28 -34 45 -22 38 18 -11 27 -7 86 46
50 43 65 62 61 76 -9 28 -3 24 39 -27z m3524 -50 c50 -57 14 -164 -78 -225
-107 -72 -204 0 -159 118 15 40 77 102 124 124 48 23 82 18 113 -17z m-3395
-175 c9 -139 14 -145 66 -73 23 32 39 64 37 71 -3 7 8 3 24 -9 32 -24 39 -33
16 -25 -9 4 -36 -19 -72 -61 -32 -37 -63 -73 -70 -81 -9 -10 -14 0 -23 55 -7
38 -15 104 -19 148 l-7 78 -54 -62 c-47 -54 -53 -65 -43 -81 19 -30 -1 -22
-37 15 -28 29 -30 34 -13 29 16 -4 37 10 87 58 64 61 65 63 48 83 -10 12 -1 6
18 -12 36 -33 36 -34 42 -133z m3057 -8 c-8 -16 0 -31 46 -90 58 -73 63 -76
80 -63 5 4 -4 -6 -21 -21 -16 -16 -38 -33 -48 -38 -16 -9 -17 -8 -6 10 11 17
7 26 -32 76 -24 31 -49 64 -56 72 -10 13 -15 14 -30 3 -10 -7 2 5 27 28 52 47
54 49 40 23z m-80 -115 c0 -5 -6 -3 -14 3 -11 9 -22 8 -50 -6 -20 -9 -36 -21
-36 -26 0 -4 20 -40 45 -79 37 -56 50 -69 65 -65 30 8 16 -6 -42 -42 -32 -20
-46 -26 -35 -14 9 11 17 23 17 27 0 14 -90 146 -99 146 -22 0 -70 -51 -64 -68
4 -12 3 -14 -4 -7 -6 6 -14 21 -18 35 -4 14 -4 22 0 18 4 -4 21 0 39 9 58 30
166 106 166 117 1 12 29 -34 30 -48z m-2692 -6 c23 -10 57 -30 75 -44 27 -21
36 -23 46 -13 11 10 12 8 3 -8 -6 -11 -18 -29 -27 -40 -13 -16 -16 -17 -11 -3
6 21 -35 73 -75 93 -127 66 -199 -108 -76 -184 45 -28 52 -27 67 10 11 26 11
32 -1 40 -31 20 2 7 42 -16 24 -14 36 -25 27 -25 -10 0 -22 -8 -27 -17 -26
-45 -25 -45 -72 -24 -24 10 -63 35 -86 55 -125 108 -36 244 115 176z m192
-140 c-36 -28 -44 -24 -18 10 15 21 25 27 32 20 8 -8 4 -17 -14 -30z m2186 1
c-4 -5 22 -31 56 -59 74 -58 105 -75 118 -67 6 3 10 4 10 1 0 -3 -24 -18 -52
-32 -37 -19 -48 -22 -39 -10 8 9 12 17 10 19 -2 1 -16 13 -31 26 -28 24 -28
24 -68 6 -36 -16 -40 -21 -40 -56 0 -24 6 -41 16 -47 12 -7 6 -12 -28 -25 -29
-11 -37 -12 -25 -3 14 11 17 30 17 115 0 74 -3 101 -12 101 -7 1 3 9 22 20 39
21 54 25 46 11z m-2055 -36 c16 -9 34 -13 39 -10 14 9 12 -1 -5 -35 -19 -37
-24 -38 -22 -3 2 20 -5 31 -25 42 -25 14 -29 14 -44 0 -15 -15 -13 -21 20 -69
41 -59 42 -67 20 -98 -19 -28 -76 -30 -120 -3 -23 14 -35 16 -43 8 -17 -17
-13 -2 10 37 24 42 32 46 23 12 -4 -18 1 -29 22 -45 31 -24 62 -24 77 0 8 13
3 28 -21 65 -36 53 -39 75 -16 98 20 20 47 20 85 1z m1923 -55 c6 -23 6 -23
-7 -8 -12 15 -19 16 -48 7 -19 -7 -37 -15 -41 -18 -4 -4 7 -44 24 -89 29 -77
33 -83 55 -77 38 9 26 -2 -19 -18 -24 -8 -52 -18 -63 -22 -19 -7 -19 -7 -2 6
17 14 17 18 -13 101 l-31 86 -32 -13 c-18 -7 -37 -23 -44 -36 -9 -17 -13 -19
-17 -9 -2 8 -6 22 -9 31 -4 12 2 16 22 17 41 1 191 61 198 79 7 18 16 5 27
-37z m-274 -88 c0 -21 -1 -22 -16 -8 -8 9 -24 16 -34 16 -19 0 -50 -25 -50
-40 0 -13 29 -27 72 -35 37 -7 60 -25 71 -58 10 -26 -41 -74 -86 -82 -24 -5
-37 -13 -37 -23 0 -27 -12 -4 -20 38 -7 41 -7 41 12 21 23 -25 70 -27 93 -5
28 28 14 48 -50 69 -48 16 -62 26 -70 49 -8 25 -6 31 18 52 16 13 39 24 53 24
16 0 24 6 24 18 0 14 2 15 10 2 5 -8 10 -25 10 -38z m-1311 19 c35 -13 53 -15
60 -8 14 14 13 1 -4 -43 -10 -27 -14 -30 -14 -13 -2 50 -103 88 -159 59 -33
-17 -42 -34 -42 -77 0 -62 53 -106 145 -119 l50 -8 -46 -1 c-133 -3 -238 99
-183 178 36 50 112 63 193 32z m228 -57 c70 -19 83 -44 42 -78 -34 -29 -33
-31 23 -113 43 -64 17 -52 -49 22 -78 87 -97 86 -96 -7 0 -19 -16 -21 -57 -8
-14 4 -18 8 -9 9 11 1 21 25 36 89 19 80 19 88 4 100 -14 12 -11 13 19 7 19
-3 59 -13 87 -21z m803 -10 c0 -32 -1 -34 -16 -20 -20 20 -58 20 -74 1 -17
-20 -7 -31 62 -64 45 -22 53 -31 56 -57 4 -42 -35 -74 -89 -74 -26 0 -41 -6
-48 -17 -8 -14 -10 -7 -10 32 0 44 2 47 11 27 14 -28 51 -38 84 -23 40 18 28
52 -26 77 -58 28 -70 40 -70 69 0 30 35 55 77 55 23 0 33 5 33 15 0 8 2 15 5
15 3 0 5 -16 5 -36z m-191 -36 c0 -36 -2 -39 -9 -20 -11 27 -32 36 -65 28 -41
-10 -32 -41 20 -65 108 -51 87 -141 -34 -141 -29 0 -41 -5 -44 -17 -3 -12 -5
-9 -5 7 0 30 16 83 17 58 2 -34 62 -49 95 -25 27 20 12 51 -35 72 -41 19 -69
48 -69 72 0 27 39 53 80 53 22 0 40 5 40 10 0 6 2 10 5 10 3 0 5 -19 4 -42z
m-267 12 c99 -28 105 -155 8 -194 -140 -56 -287 49 -208 149 39 50 117 68 200
45z"/>
<path d="M3690 5692 c-45 -25 -76 -70 -89 -133 -29 -136 44 -235 167 -226 45
3 59 9 90 41 70 67 94 191 50 256 -36 52 -71 73 -130 77 -39 3 -62 -1 -88 -15z"/>
<path d="M1907 5496 c-3 -7 -9 -51 -13 -96 -7 -79 -6 -83 12 -76 10 4 47 17
82 29 34 12 62 25 62 28 0 3 -31 34 -69 67 -47 43 -71 57 -74 48z"/>
<path d="M4370 5472 c-7 -15 -23 -51 -36 -80 l-24 -53 92 -44 c121 -60 174
-60 204 -3 29 55 -16 110 -131 163 -22 10 -52 24 -66 31 -24 12 -27 11 -39
-14z"/>
<path d="M889 4971 c-24 -17 -61 -47 -81 -68 l-38 -39 68 -67 68 -67 67 68
c83 83 94 120 52 170 -35 42 -76 42 -136 3z"/>
<path d="M3995 4261 c-47 -12 -108 -47 -137 -78 -60 -63 -77 -172 -35 -234 90
-135 283 -45 247 116 -15 68 -83 112 -151 98 -33 -6 -36 3 -11 33 28 35 77 54
137 54 71 0 89 -10 117 -63 18 -35 22 -62 26 -172 5 -159 -6 -202 -58 -227
-20 -10 -58 -18 -87 -18 -81 0 -63 -17 22 -22 68 -3 77 -6 108 -36 43 -42 57
-84 64 -202 10 -175 -25 -302 -95 -343 -42 -24 -138 -26 -202 -2 -49 17 -103
64 -126 107 -21 40 -17 49 14 32 58 -30 143 -9 181 45 31 43 37 116 14 161
-38 73 -156 101 -222 53 -103 -77 -104 -230 -2 -333 87 -86 221 -117 384 -86
205 39 321 132 349 283 27 149 -75 278 -257 324 l-48 12 59 30 c130 66 174
123 174 227 0 103 -58 176 -180 225 -50 20 -232 30 -285 16z"/>
<path d="M1976 4149 c-86 -12 -234 -61 -306 -101 -223 -125 -377 -336 -437
-600 -22 -100 -22 -336 0 -436 73 -321 314 -510 672 -528 130 -7 228 10 321
56 74 36 173 137 222 225 l33 60 -5 -197 c-12 -428 -69 -767 -158 -943 -36
-70 -120 -147 -193 -175 -79 -31 -233 -34 -313 -7 -61 22 -139 81 -164 125
l-18 30 88 -1 c156 -2 251 52 314 180 59 119 41 236 -51 336 -65 70 -125 92
-251 92 -85 0 -114 -4 -151 -21 -66 -31 -114 -78 -146 -142 -26 -52 -28 -66
-28 -172 0 -111 1 -118 34 -185 58 -119 156 -200 304 -253 65 -23 86 -26 227
-26 131 -1 168 3 240 22 351 96 648 382 811 782 95 235 136 471 126 729 -6
170 -25 283 -68 419 -119 370 -371 620 -714 707 -112 29 -281 39 -389 24z
m236 -31 c22 -6 62 -32 89 -56 111 -100 164 -307 176 -687 12 -396 -45 -627
-186 -758 -92 -85 -183 -107 -268 -66 -84 41 -143 145 -168 299 -34 211 -28
813 11 1022 17 94 58 176 105 210 60 45 162 60 241 36z"/>
<path d="M4270 2920 c-250 -4 -562 -8 -692 -9 l-238 -1 0 -41 0 -41 178 6 c97
3 460 9 805 12 l628 6 -3 37 -3 36 -110 1 c-60 0 -315 -3 -565 -6z"/>
<path d="M3998 2503 c-292 -494 -365 -618 -362 -621 1 -2 83 -3 181 -3 98 1
184 -3 192 -8 11 -7 13 -32 9 -123 -7 -153 -18 -171 -117 -188 -27 -4 76 -8
254 -8 251 0 291 2 246 11 -84 18 -95 40 -100 193 l-3 125 83 -3 83 -2 12 39
c6 22 15 56 19 75 9 45 -8 29 -25 -23 -15 -47 -34 -57 -109 -57 l-61 0 0 375
0 375 -104 0 -105 0 -93 -157z m22 -298 l0 -295 -175 0 c-96 0 -175 2 -175 5
0 3 49 87 108 187 60 101 137 231 171 291 35 59 65 107 67 107 2 0 4 -133 4
-295z"/>
<path d="M4667 1059 c-31 -24 -57 -68 -57 -98 0 -11 12 -33 26 -50 21 -25 33
-31 65 -31 52 0 95 23 119 63 28 44 25 74 -9 108 -37 36 -101 40 -144 8z"/>
<path d="M4060 606 c0 -7 3 -27 6 -44 6 -31 6 -31 36 -16 l30 16 -28 29 c-30
32 -44 36 -44 15z"/>
<path d="M2567 432 c-3 -4 -8 -26 -12 -49 -7 -42 -6 -43 22 -43 68 0 86 62 26
87 -18 7 -34 9 -36 5z"/>
<path d="M2834 390 c-55 -22 -69 -90 -29 -138 50 -60 134 -67 175 -15 64 82
-43 195 -146 153z"/>
</g>
</svg>
